<?xml version="1.0" standalone="no"?>
<!DOCTYPE svg PUBLIC "-//W3C//DTD SVG 20010904//EN"
 "http://www.w3.org/TR/2001/REC-SVG-20010904/DTD/svg10.dtd">
<svg version="1.0" xmlns="http://www.w3.org/2000/svg"
 width="780.000000pt" height="780.000000pt" viewBox="0 0 780.000000 780.000000"
 preserveAspectRatio="xMidYMid meet">

<g transform="translate(0.000000,780.000000) scale(0.100000,-0.100000)"
fill="#74e39a" stroke="none">
<path d="M501 7684 c-58 -190 -91 -418 -91 -634 0 -364 77 -695 235 -1016 226
-458 584 -818 1028 -1034 127 -62 349 -146 433 -164 l32 -7 -4 68 c-27 431
-104 771 -260 1143 -203 485 -534 933 -927 1254 -59 49 -106 91 -103 93 11 12
243 -134 391 -246 126 -95 365 -333 475 -474 339 -433 545 -982 567 -1509 3
-82 9 -148 13 -148 25 0 128 358 151 520 15 109 15 390 0 500 -30 222 -94 431
-191 629 -174 351 -433 630 -767 828 -250 147 -567 245 -841 260 l-120 6 -21
-69z"/>
<path d="M4050 6774 c-336 -43 -601 -158 -855 -371 -242 -204 -435 -541 -500
-873 -29 -148 -32 -510 -5 -510 4 0 14 23 20 52 7 28 30 97 52 152 216 557
641 988 1187 1206 107 42 261 90 290 90 9 0 -45 -31 -119 -68 -448 -224 -790
-532 -1055 -952 -110 -174 -252 -488 -280 -617 l-7 -33 89 0 c425 2 904 219
1216 549 307 327 467 714 484 1167 l6 170 -99 18 c-95 17 -350 29 -424 20z"/>
<path d="M2511 5274 c-5 -22 -24 -95 -41 -164 -39 -156 -103 -378 -235 -820
-151 -504 -227 -787 -279 -1035 -143 -690 -95 -1228 154 -1725 124 -246 308
-488 508 -666 464 -413 1059 -666 1757 -746 163 -18 581 -15 735 6 238 32 428
72 585 123 471 152 855 374 1179 684 427 407 673 909 737 1498 15 141 7 464
-16 611 -35 225 -96 457 -171 642 -234 585 -682 1071 -1232 1339 -321 157
-592 226 -919 236 -191 6 -303 -4 -483 -44 -381 -83 -751 -315 -1003 -627
-556 -691 -659 -1562 -274 -2320 74 -146 153 -252 260 -351 324 -298 727 -441
1172 -415 299 18 599 115 830 268 312 207 473 457 523 809 l7 53 90 -111 c50
-60 104 -119 121 -130 66 -41 149 -16 184 56 24 50 25 80 2 121 -20 35 -330
415 -478 584 -197 226 -396 377 -598 454 -165 64 -208 71 -436 70 -181 -1
-220 -4 -330 -27 -409 -86 -732 -278 -946 -562 l-61 -80 19 -102 c48 -273 191
-569 382 -793 30 -35 53 -66 51 -69 -8 -8 -109 66 -188 136 -222 199 -353 432
-413 737 -25 126 -30 388 -10 526 57 390 219 712 501 996 217 218 426 335 714
396 140 30 452 33 600 5 375 -71 730 -256 1019 -532 369 -351 568 -731 664
-1264 20 -109 23 -159 23 -376 -1 -266 -7 -316 -61 -525 -91 -350 -305 -695
-595 -960 -636 -583 -1580 -811 -2504 -605 -364 81 -753 264 -1021 479 -87 70
-267 249 -337 336 -93 116 -173 243 -242 385 -162 334 -222 628 -212 1050 6
286 31 462 146 1040 140 701 171 971 150 1290 -6 82 -12 151 -14 153 -2 2 -8
-13 -14 -34z"/>
</g>
</svg>
